Coordinates
version=1
nRows=8
nColumns=63
inDegrees=yes

Units are S.I. units (second, meters, Newtons, ...)
If the header above contains a line with 'inDegrees', this indicates whether rotational values are in degrees (yes) or radians (no).

endheader
time	pelvis_tilt	pelvis_list	pelvis_rotation	pelvis_tx	pelvis_ty	pelvis_tz	hip_flexion_r	hip_adduction_r	hip_rotation_r	knee_angle_r	knee_angle_r_beta	ankle_angle_r	subtalar_angle_r	mtp_angle_r	hip_flexion_l	hip_adduction_l	hip_rotation_l	knee_angle_l	knee_angle_l_beta	ankle_angle_l	subtalar_angle_l	mtp_angle_l	L5_S1_Flex_Ext	L5_S1_Lat_Bending	L5_S1_axial_rotation	L4_L5_Flex_Ext	L4_L5_Lat_Bending	L4_L5_axial_rotation	L3_L4_Flex_Ext	L3_L4_Lat_Bending	L3_L4_axial_rotation	L2_L3_Flex_Ext	L2_L3_Lat_Bending	L2_L3_axial_rotation	L1_L2_Flex_Ext	L1_L2_Lat_Bending	L1_L2_axial_rotation	L1_T12_Flex_Ext	L1_T12_Lat_Bending	L1_T12_axial_rotation	Abs_r3	Abs_r2	Abs_r1	Abs_t1	Abs_t2	neck_flexion	neck_bending	neck_rotation	arm_flex_r	arm_add_r	arm_rot_r	elbow_flex_r	pro_sup_r	wrist_flex_r	wrist_dev_r	arm_flex_l	arm_add_l	arm_rot_l	elbow_flex_l	pro_sup_l	wrist_flex_l	wrist_dev_l
5.780488	0.515413	2.518947	80.696573	0.292756	0.600842	0.622022	-6.688744	2.502633	-5.740465	5.863061	0.102330	30.629135	-0.219931	0.000000	-6.574106	-3.765224	8.280788	4.755246	0.082995	30.846853	6.746181	0.000000	-0.043411	-0.003593	0.120587	-0.080618	-0.004778	0.128124	-0.071319	-0.008735	0.128124	-0.049614	-0.008735	0.105514	-0.040311	-0.007326	0.097977	-0.024805	-0.005565	0.090441	-0.310078	-0.040640	0.670671	0.000000	0.000000	3.926654	5.685127	-3.349753	0.659227	-54.931021	-52.580985	121.550464	60.034274	0.789251	17.363800	28.314660	-44.891867	-41.242499	124.575065	84.211046	-10.499258	3.138465
5.804878	0.582742	2.614515	81.223639	0.292323	0.601365	0.622068	-6.895309	2.638345	-6.416347	5.679177	0.099120	30.268008	-0.223613	0.000000	-6.525576	-3.928767	7.606138	4.992777	0.087140	30.985436	8.186549	0.000000	-0.044516	-0.015188	0.046093	-0.082671	-0.020200	0.048974	-0.073136	-0.036929	0.048974	-0.050878	-0.036929	0.040332	-0.041338	-0.030972	0.037451	-0.025437	-0.023527	0.034570	-0.317975	-0.171813	0.256358	0.000000	0.000000	3.814782	6.149144	-3.807281	7.507098	-56.105529	-57.434937	120.946015	61.661946	0.630971	15.081035	35.418832	-45.476946	-42.626505	125.012440	84.229362	-11.561116	4.326464
5.829268	0.637284	2.697331	81.619798	0.292066	0.601845	0.622206	-7.069470	2.751020	-7.006773	5.521715	0.096372	29.938050	-0.166696	0.000000	-6.482761	-4.069062	6.901157	5.204702	0.090839	31.114963	9.519649	0.000000	-0.046746	-0.026495	-0.005375	-0.086812	-0.035239	-0.005711	-0.076799	-0.064420	-0.005711	-0.053426	-0.064420	-0.004703	-0.043408	-0.054029	-0.004367	-0.026711	-0.041041	-0.004031	-0.333903	-0.299719	-0.029893	0.000000	0.000000	3.807399	6.582574	-4.263746	14.452195	-56.929648	-61.633586	119.893321	63.822721	1.759909	12.360371	41.851371	-45.822480	-43.194516	125.455188	84.381266	-11.984505	5.498867
5.853659	0.679007	2.760299	81.901048	0.291916	0.602270	0.622391	-7.203009	2.840222	-7.514087	5.393688	0.094138	29.644000	-0.064213	0.000000	-6.438321	-4.185536	6.195530	5.389731	0.094069	31.251909	10.725796	0.000000	-0.048613	-0.035055	-0.041174	-0.090279	-0.046624	-0.043748	-0.079866	-0.085233	-0.043748	-0.055560	-0.085233	-0.036028	-0.045142	-0.071485	-0.033454	-0.027777	-0.054301	-0.030881	-0.347236	-0.396552	-0.228999	0.000000	0.000000	3.868931	6.934306	-4.633383	21.049557	-57.476983	-65.052756	118.776587	66.647537	3.947130	9.398144	47.345956	-46.005382	-42.850294	126.065532	84.539026	-11.915880	6.458666
5.878049	0.708202	2.816257	82.075092	0.291845	0.602644	0.622573	-7.306999	2.899515	-7.893258	5.298854	0.092482	29.403815	0.065742	0.000000	-6.412927	-4.269424	5.573960	5.533761	0.096582	31.371203	11.695117	0.000000	-0.051549	-0.040537	-0.052761	-0.095731	-0.053914	-0.056058	-0.084689	-0.098562	-0.056058	-0.058915	-0.098562	-0.046166	-0.047868	-0.082663	-0.042868	-0.029455	-0.062792	-0.039570	-0.368208	-0.458563	-0.293439	0.000000	0.000000	3.986318	7.193171	-4.948835	26.737524	-57.786156	-67.850438	117.915288	68.906742	7.125542	7.028084	51.806734	-46.116702	-41.438600	126.891096	84.579692	-11.429472	7.036484
5.902439	0.740929	2.868347	82.130462	0.291869	0.602960	0.622699	-7.385777	2.944396	-8.146656	5.243041	0.091508	29.249675	0.207592	0.000000	-6.423277	-4.334426	5.062273	5.629067	0.098246	31.453252	12.393302	0.000000	-0.054884	-0.040488	-0.040153	-0.101925	-0.053849	-0.042662	-0.090169	-0.098442	-0.042662	-0.062727	-0.098442	-0.035134	-0.050965	-0.082562	-0.032624	-0.031361	-0.062715	-0.030115	-0.392032	-0.458004	-0.223319	0.000000	0.000000	4.122100	7.339365	-5.160741	31.206887	-57.866423	-69.997993	117.616722	70.192601	10.745159	5.477068	55.106025	-46.252867	-39.049556	127.945849	84.422106	-10.433481	7.113490
5.926829	0.775863	2.924561	82.109726	0.291935	0.603215	0.622727	-7.450675	2.975040	-8.293254	5.227741	0.091241	29.185723	0.341969	0.000000	-6.474153	-4.380631	4.705445	5.673782	0.099026	31.503250	12.821399	0.000000	-0.058815	-0.035669	-0.008896	-0.109225	-0.047440	-0.009452	-0.096626	-0.086725	-0.009452	-0.067219	-0.086725	-0.007784	-0.054615	-0.072736	-0.007228	-0.033607	-0.055251	-0.006672	-0.420107	-0.403493	-0.049477	0.000000	0.000000	4.258315	7.402947	-5.267674	34.240944	-57.736543	-71.627135	118.135557	70.248473	14.363983	4.900560	57.207088	-46.457442	-35.912374	129.242067	84.213980	-8.882202	6.684409
5.951220	0.811081	2.982966	82.070885	0.292000	0.603402	0.622605	-7.509645	2.999455	-8.359658	5.242607	0.091501	29.197502	0.421554	0.000000	-6.560532	-4.412481	4.572501	5.665737	0.098886	31.515283	12.963234	0.000000	-0.062183	-0.027167	0.030052	-0.115481	-0.036133	0.031930	-0.102161	-0.066055	0.031930	-0.071069	-0.066055	0.026295	-0.057743	-0.055400	0.024417	-0.035532	-0.042082	0.022539	-0.444170	-0.307322	0.167139	0.000000	0.000000	4.390577	7.429951	-5.253992	35.786992	-57.448656	-72.900778	119.615319	69.163850	17.718265	5.338331	58.100747	-46.702883	-32.445801	130.824767	84.164690	-6.962311	5.782634
